<svg xmlns="http://www.w3.org/2000/svg" viewBox="0 0 520 180" role="img" aria-label="Тепло-Проект"><defs><linearGradient id="o" x1="0" y1="0" x2="1" y2="1"><stop stop-color="#ff9a2f"/><stop offset="1" stop-color="#ed6819"/></linearGradient></defs><g fill="none" stroke="#223442" stroke-width="9" stroke-linejoin="miter"><path d="M24 105 124 38l67 51V25l55-34 54 34v37l50 31v49h-18V103l-24-15v54h-18V77l-24-15v80h-18V49l-39-25v92l-18-14-67-51-100 67Z"/><path d="M106 105V80h25v25M118.5 80v25M106 92.5h25" stroke-width="6"/></g><path d="M208 22v72l27 20V6Z" fill="url(#o)"/><path d="M23 139c92-31 160-22 225 4 72 29 137 30 244-7-79 58-165 55-247 25-66-24-132-30-222-6 70-33 132-38 220-7" fill="url(#o)"/><text x="24" y="177" font-family="Arial, sans-serif" font-size="31" font-weight="700" letter-spacing="2"><tspan fill="#ed6819">ТЕПЛО</tspan><tspan fill="#223442">-ПРОЕКТ</tspan></text></svg>